<svg width="60" height="60" viewBox="0 0 60 60" fill="none" xmlns="http://www.w3.org/2000/svg"><g clip-path="url(#clip0_70_10317)" fill-rule="evenodd" clip-rule="evenodd"><path d="M20.957 6C14.84 6 9.335 10.317 9.335 16.262c0 5.944 5.505 10.261 11.622 10.261s11.622-4.317 11.622-10.261C32.579 10.317 27.074 6 20.957 6zm-7.048 10.262c0-2.912 2.858-5.767 7.048-5.767 4.19 0 7.048 2.855 7.048 5.767 0 2.911-2.858 5.766-7.048 5.766-4.19 0-7.048-2.855-7.048-5.766zM7.726 31.866C2.928 34.743 0 39.863 0 45.383v1.264c0 .483 0 .896.042 1.27.355 3.184 2.917 5.694 6.155 6.042.38.041.8.041 1.294.041h26.931c.494 0 .914 0 1.295-.04 3.238-.35 5.8-2.859 6.155-6.043.042-.374.042-.787.042-1.27v-1.264c0-5.52-2.928-10.64-7.726-13.517-8.123-4.87-18.34-4.87-26.462 0zM4.574 45.383c0-3.95 2.095-7.618 5.534-9.68a21.148 21.148 0 0121.698 0c3.438 2.062 5.534 5.73 5.534 9.68v1.153c0 .652-.004.795-.015.89-.12 1.085-.994 1.945-2.106 2.065-.098.01-.245.014-.909.014H7.604c-.665 0-.811-.004-.91-.014-1.111-.12-1.985-.98-2.106-2.064-.01-.096-.014-.239-.014-.891v-1.153z" fill="#fff"/><path d="M43.857 14.157c-5.15 0-9.872 3.644-9.872 8.76 0 5.114 4.722 8.758 9.872 8.758 5.15 0 9.871-3.644 9.871-8.759s-4.721-8.759-9.871-8.759zm-5.298 8.76c0-2.083 2.076-4.265 5.298-4.265s5.298 2.182 5.298 4.264c0 2.082-2.076 4.264-5.298 4.264s-5.298-2.182-5.298-4.264zm15.174 12.866c-3.111-1.773-6.624-2.633-10.12-2.591-.31.004-.62.015-.93.033-1.258.072-2.223 1.133-2.148 2.376.074 1.242 1.16 2.183 2.417 2.11.239-.013.478-.021.717-.024a15.349 15.349 0 017.771 1.985c2.513 1.431 3.986 3.937 3.986 6.575v.785c0 .332-.002.459-.013.546-.108.925-.926 1.789-2.138 1.913a6.946 6.946 0 01-.627.014h-7.405c-1.26 0-2.287 1.003-2.287 2.247 0 1.245 1.027 2.248 2.287 2.248h7.45c.284 0 .674 0 1.055-.038 3.181-.326 5.836-2.695 6.209-5.868a8.68 8.68 0 00.044-1.018v-.829c0-4.319-2.412-8.268-6.268-10.464z" fill="#FF1E1E"/></g><defs><clipPath id="clip0_70_10317"><rect width="60" height="60" fill="#fff"/></clipPath></defs></svg>