<svg width="60" height="60" viewBox="0 0 60 60" fill="none" xmlns="http://www.w3.org/2000/svg"><path fill-rule="evenodd" clip-rule="evenodd" d="M5.076 2.79A2.287 2.287 0 002.79 5.077v33.397c0 3.775 0 6.84.324 9.254.338 2.516 1.066 4.666 2.779 6.379 1.712 1.712 3.863 2.44 6.378 2.778 2.415.325 5.479.325 9.254.325h33.398a2.287 2.287 0 000-4.574H21.692c-3.981 0-6.737-.005-8.811-.284-2.009-.27-3.033-.759-3.754-1.48-.721-.72-1.21-1.745-1.48-3.753-.279-2.075-.284-4.83-.284-8.811V5.077A2.287 2.287 0 005.076 2.79z" fill="#fff"/><path d="M51.875 20.832a2.25 2.25 0 10-3.626-2.664L38.336 31.66c-.721.982-1.203 1.635-1.596 2.108-.394.472-.572.602-.636.64a2.25 2.25 0 01-2.473-.093c-.062-.044-.23-.188-.586-.688-.356-.5-.786-1.189-1.43-2.223l-.039-.06-.002-.005c-.644-1.033-1.182-1.895-1.656-2.561-.481-.675-1.023-1.334-1.73-1.823a6.75 6.75 0 00-7.68 0c-.708.49-1.25 1.148-1.73 1.823-.476.666-1.014 1.53-1.66 2.565l-4.965 7.967a2.25 2.25 0 103.818 2.38l4.929-7.906c.692-1.11 1.157-1.855 1.542-2.394.387-.544.567-.693.626-.734a2.25 2.25 0 012.56 0c.058.04.238.19.625.734.385.539.85 1.283 1.542 2.394l.037.06c.598.96 1.101 1.766 1.548 2.393.455.64.967 1.262 1.634 1.739a6.75 6.75 0 007.42.282c.702-.424 1.26-1.006 1.762-1.609.492-.59 1.053-1.354 1.721-2.263l.004-.005 9.954-13.549z" fill="#1E93FF"/></svg>