<svg width="81" height="80" viewBox="0 0 81 80" fill="none" xmlns="http://www.w3.org/2000/svg"><path fill-rule="evenodd" clip-rule="evenodd" d="M58.82 4H18.415c-1.622 0-2.989 0-4.114.077-1.176.08-2.307.255-3.41.712a10.353 10.353 0 00-5.604 5.603c-.457 1.103-.631 2.234-.711 3.41-.077 1.126-.077 2.493-.077 4.114v25.976c0 6.716 0 12.064.564 16.256.581 4.326 1.813 7.872 4.615 10.674 2.802 2.802 6.347 4.033 10.673 4.615C24.544 76 29.892 76 36.61 76h9.584c5.855 0 10.52 0 14.215-.436 3.803-.45 6.972-1.398 9.628-3.577a17.698 17.698 0 002.45-2.45c2.18-2.656 3.128-5.825 3.577-9.629.437-3.695.437-8.359.437-14.214v-.395c0-5.856 0-10.52-.437-14.215-.45-3.803-1.397-6.973-3.576-9.628a17.688 17.688 0 00-2.451-2.45c-2.656-2.18-5.825-3.128-9.628-3.577-3.696-.437-8.36-.437-14.215-.437H10.577c.009-.283.02-.54.037-.778.06-.868.164-1.263.265-1.507a4.302 4.302 0 012.328-2.328c.243-.1.639-.205 1.507-.264.895-.062 2.054-.063 3.803-.063H58.82a3.026 3.026 0 000-6.052zM10.55 43.664v-22.62h35.445c6.096 0 10.402.004 13.702.394 3.232.382 5.1 1.098 6.499 2.245a11.629 11.629 0 011.612 1.612c1.147 1.398 1.863 3.267 2.245 6.5.39 3.298.395 7.605.395 13.701 0 6.097-.005 10.403-.395 13.702-.382 3.232-1.098 5.1-2.245 6.5a11.628 11.628 0 01-1.612 1.611c-1.399 1.148-3.267 1.863-6.5 2.245-3.299.39-7.605.395-13.701.395h-9.16c-6.994 0-11.935-.006-15.677-.51-3.656-.491-5.711-1.406-7.201-2.896-1.49-1.49-2.406-3.546-2.897-7.201-.503-3.742-.51-8.684-.51-15.678z" fill="#fff"/><path d="M56.5 52a4 4 0 100-8 4 4 0 000 8z" fill="#1E93FF"/></svg>